<svg width="1723" height="1500" viewBox="0 0 1723 1500" fill="none" xmlns="http://www.w3.org/2000/svg"><path transform="matrix(-.92104 -.38947 -.38937 .92108 1721 1458)" stroke="#ECECEC" stroke-opacity=".2" d="M0-.5h1723"/><path transform="matrix(-.92104 -.38947 -.38937 .92108 1587 1500)" stroke="#ECECEC" stroke-opacity=".2" d="M0-.5h1723"/><g filter="url(#filter0_f)"><g filter="url(#filter1_d)"><path d="M1368 1102.76l-17-7.76.2 22.24 16.8 7.76v-22.24z" fill="#EAA5C9"/><path d="M1385 1095l-17 7.55V1125l17-7.96V1095z" fill="#FFC8ED"/><path d="M1385 1095.21l-17.3-8.21-16.7 8.21 16.7 7.79 17.3-7.79z" fill="#F9D9EE"/></g></g><g filter="url(#filter2_df)"><path d="M1429 1168.73l-32-14.73.39 42.27L1429 1211v-42.27z" fill="#A5EAD1"/><path d="M1463 1154l-34 14.35V1211l34-15.12V1154z" fill="#CAFFDF"/><path d="M1463 1153.38l-33.59-15.38-32.41 15.38 32.41 14.62 33.59-14.62z" fill="#ABFFCD"/></g><path transform="matrix(.92105 -.38946 .38938 .92108 2 899)" stroke="#ECECEC" stroke-opacity=".3" d="M0-.5h1723"/><path transform="matrix(.92105 -.38946 .38938 .92108 136 941)" stroke="#ECECEC" stroke-opacity=".2" d="M0-.5h1723"/><g filter="url(#filter3_df)"><path d="M405 460.082L383 450l.265 28.918L405 489v-28.918z" fill="#A5BCEA"/><path d="M427 450l-22 9.816V489l22-10.347V450z" fill="#C8D7FF"/><path d="M427 450.256L404.609 440 383 450.256 404.609 460 427 450.256z" fill="#B6E3FF"/></g><g filter="url(#filter4_df)"><path d="M1416 28.082L1394 18l.27 28.918L1416 57V28.082z" fill="#C78435"/><path d="M1438 18l-22 9.816V57l22-10.347V18z" fill="#F8A833"/><path d="M1438 18.256L1415.61 8 1394 18.256 1415.61 28l22.39-9.744z" fill="#FFF94E"/></g><g filter="url(#filter5_df)"><path d="M1364 128.925L1336 116l.34 37.445L1364 166v-37.075z" fill="#B7B7B7"/><path d="M1394 116l-30 12.585V166l30-13.265V116z" fill="#A7A7A7"/><path d="M1394 115.846L1364.49 102 1336 115.846 1364.49 129l29.51-13.154z" fill="#F0F0F0"/></g><defs><filter id="filter0_f" x="1343" y="1079" width="50" height="54" filterUnits="userSpaceOnUse" color-interpolation-filters="sRGB"><feFlood flood-opacity="0" result="BackgroundImageFix"/><feBlend in="SourceGraphic" in2="BackgroundImageFix" result="shape"/><feGaussianBlur stdDeviation="4" result="effect1_foregroundBlur"/></filter><filter id="filter1_d" x="1322" y="1083" width="82" height="86" filterUnits="userSpaceOnUse" color-interpolation-filters="sRGB"><feFlood flood-opacity="0" result="BackgroundImageFix"/><feColorMatrix in="SourceAlpha" values="0 0 0 0 0 0 0 0 0 0 0 0 0 0 0 0 0 0 127 0" result="hardAlpha"/><feOffset dx="-5" dy="20"/><feGaussianBlur stdDeviation="12"/><feColorMatrix values="0 0 0 0 0 0 0 0 0 0 0 0 0 0 0 0 0 0 0.15 0"/><feBlend in2="BackgroundImageFix" result="effect1_dropShadow"/><feBlend in="SourceGraphic" in2="effect1_dropShadow" result="shape"/></filter><filter id="filter2_df" x="1368" y="1130" width="114" height="125" filterUnits="userSpaceOnUse" color-interpolation-filters="sRGB"><feFlood flood-opacity="0" result="BackgroundImageFix"/><feColorMatrix in="SourceAlpha" values="0 0 0 0 0 0 0 0 0 0 0 0 0 0 0 0 0 0 127 0" result="hardAlpha"/><feOffset dx="-5" dy="20"/><feGaussianBlur stdDeviation="12"/><feColorMatrix values="0 0 0 0 0 0 0 0 0 0 0 0 0 0 0 0 0 0 0.15 0"/><feBlend in2="BackgroundImageFix" result="effect1_dropShadow"/><feBlend in="SourceGraphic" in2="effect1_dropShadow" result="shape"/><feGaussianBlur stdDeviation="4" result="effect2_foregroundBlur"/></filter><filter id="filter3_df" x="375" y="432" width="60" height="65" filterUnits="userSpaceOnUse" color-interpolation-filters="sRGB"><feFlood flood-opacity="0" result="BackgroundImageFix"/><feColorMatrix in="SourceAlpha" values="0 0 0 0 0 0 0 0 0 0 0 0 0 0 0 0 0 0 127 0" result="hardAlpha"/><feOffset dy="4"/><feGaussianBlur stdDeviation="2"/><feComposite in2="hardAlpha" operator="out"/><feColorMatrix values="0 0 0 0 0 0 0 0 0 0 0 0 0 0 0 0 0 0 0.25 0"/><feBlend in2="BackgroundImageFix" result="effect1_dropShadow"/><feBlend in="SourceGraphic" in2="effect1_dropShadow" result="shape"/><feGaussianBlur stdDeviation="4" result="effect2_foregroundBlur"/></filter><filter id="filter4_df" x="1386" y="0" width="60" height="65" filterUnits="userSpaceOnUse" color-interpolation-filters="sRGB"><feFlood flood-opacity="0" result="BackgroundImageFix"/><feColorMatrix in="SourceAlpha" values="0 0 0 0 0 0 0 0 0 0 0 0 0 0 0 0 0 0 127 0" result="hardAlpha"/><feOffset dy="4"/><feGaussianBlur stdDeviation="2"/><feComposite in2="hardAlpha" operator="out"/><feColorMatrix values="0 0 0 0 0 0 0 0 0 0 0 0 0 0 0 0 0 0 0.25 0"/><feBlend in2="BackgroundImageFix" result="effect1_dropShadow"/><feBlend in="SourceGraphic" in2="effect1_dropShadow" result="shape"/><feGaussianBlur stdDeviation="4" result="effect2_foregroundBlur"/></filter><filter id="filter5_df" x="1328" y="94" width="74" height="80" filterUnits="userSpaceOnUse" color-interpolation-filters="sRGB"><feFlood flood-opacity="0" result="BackgroundImageFix"/><feColorMatrix in="SourceAlpha" values="0 0 0 0 0 0 0 0 0 0 0 0 0 0 0 0 0 0 127 0" result="hardAlpha"/><feOffset dy="4"/><feGaussianBlur stdDeviation="2"/><feComposite in2="hardAlpha" operator="out"/><feColorMatrix values="0 0 0 0 0 0 0 0 0 0 0 0 0 0 0 0 0 0 0.25 0"/><feBlend in2="BackgroundImageFix" result="effect1_dropShadow"/><feBlend in="SourceGraphic" in2="effect1_dropShadow" result="shape"/><feGaussianBlur stdDeviation="4" result="effect2_foregroundBlur"/></filter></defs></svg>